<svg xmlns="http://www.w3.org/2000/svg" xmlns:xlink="http://www.w3.org/1999/xlink" viewBox="0 0 439.94 299.86"><defs><style>.cls-1{fill:url(#radial-gradient);}.cls-2{isolation:isolate;}.cls-3{clip-path:url(#clip-path);}.cls-4{mix-blend-mode:color-dodge;}.cls-5{fill:url(#linear-gradient);}.cls-6{fill:url(#linear-gradient-2);}.cls-7{fill:url(#linear-gradient-3);}.cls-8{fill:url(#linear-gradient-4);}.cls-9{fill:url(#linear-gradient-5);}.cls-10{fill:url(#linear-gradient-6);}.cls-11{fill:url(#linear-gradient-7);}.cls-12{fill:url(#linear-gradient-8);}.cls-13{fill:url(#linear-gradient-9);}.cls-14{fill:url(#linear-gradient-10);}.cls-15{fill:url(#linear-gradient-11);}.cls-16{fill:url(#linear-gradient-12);}.cls-17{fill:url(#linear-gradient-13);}.cls-18{fill:url(#linear-gradient-14);}.cls-19{fill:url(#linear-gradient-15);}.cls-20{fill:url(#linear-gradient-16);}.cls-21{fill:url(#linear-gradient-17);}.cls-22{fill:url(#linear-gradient-18);}.cls-23{fill:url(#linear-gradient-19);}.cls-24{fill:url(#linear-gradient-20);}.cls-25{fill:url(#linear-gradient-21);}.cls-26{fill:url(#linear-gradient-22);}.cls-27{fill:url(#linear-gradient-23);}.cls-28{fill:url(#linear-gradient-24);}.cls-29{fill:url(#linear-gradient-25);}.cls-30{fill:url(#linear-gradient-26);}.cls-31{fill:url(#linear-gradient-27);}.cls-32{fill:url(#linear-gradient-28);}.cls-33{fill:url(#linear-gradient-29);}.cls-34{fill:url(#linear-gradient-30);}.cls-35{fill:url(#linear-gradient-31);}.cls-36{fill:url(#linear-gradient-32);}.cls-37{fill:url(#linear-gradient-33);}.cls-38{fill:url(#linear-gradient-34);}.cls-39{fill:url(#linear-gradient-35);}.cls-40{fill:url(#linear-gradient-36);}.cls-41{fill:url(#linear-gradient-37);}.cls-42{fill:url(#linear-gradient-38);}.cls-43{fill:url(#linear-gradient-39);}.cls-44{fill:url(#linear-gradient-40);}.cls-45{fill:url(#linear-gradient-41);}.cls-46{fill:url(#linear-gradient-42);}.cls-47{fill:url(#linear-gradient-43);}.cls-48{fill:url(#linear-gradient-44);}.cls-49{fill:url(#linear-gradient-45);}.cls-50{fill:url(#linear-gradient-46);}.cls-51{fill:url(#linear-gradient-47);}.cls-52{fill:url(#linear-gradient-48);}.cls-53{fill:url(#linear-gradient-49);}.cls-54{fill:url(#linear-gradient-50);}.cls-55{fill:url(#linear-gradient-51);}.cls-56{fill:url(#linear-gradient-52);}.cls-57{fill:url(#linear-gradient-53);}.cls-58{fill:url(#linear-gradient-54);}.cls-59{fill:url(#linear-gradient-55);}.cls-60{fill:url(#linear-gradient-56);}.cls-61{fill:url(#linear-gradient-57);}.cls-62{fill:url(#linear-gradient-58);}.cls-63{fill:url(#linear-gradient-59);}.cls-64{fill:url(#linear-gradient-60);}.cls-65{fill:url(#linear-gradient-61);}.cls-66{fill:url(#linear-gradient-62);}.cls-67{fill:url(#linear-gradient-63);}.cls-68{fill:url(#linear-gradient-64);}.cls-69{fill:url(#linear-gradient-65);}.cls-70{fill:url(#linear-gradient-66);}.cls-71{fill:url(#linear-gradient-67);}.cls-72{fill:url(#linear-gradient-68);}.cls-73{fill:url(#linear-gradient-69);}.cls-74{fill:url(#linear-gradient-70);}.cls-75{fill:url(#linear-gradient-71);}.cls-76{fill:url(#linear-gradient-72);}.cls-77{fill:url(#linear-gradient-73);}.cls-78{fill:url(#linear-gradient-74);}.cls-79{fill:url(#linear-gradient-75);}.cls-80{fill:url(#linear-gradient-76);}.cls-81{fill:url(#linear-gradient-77);}.cls-82{fill:url(#linear-gradient-78);}.cls-83{fill:url(#linear-gradient-79);}.cls-84{fill:url(#linear-gradient-80);}.cls-85{fill:url(#linear-gradient-81);}.cls-86{fill:url(#linear-gradient-82);}.cls-87{fill:url(#linear-gradient-83);}.cls-88{fill:url(#linear-gradient-84);}.cls-89{fill:url(#linear-gradient-85);}.cls-90{fill:url(#linear-gradient-86);}.cls-91{fill:url(#linear-gradient-87);}.cls-92{fill:url(#linear-gradient-88);}.cls-93{fill:url(#linear-gradient-89);}.cls-94{fill:url(#linear-gradient-90);}.cls-95{fill:url(#linear-gradient-91);}.cls-96{fill:url(#linear-gradient-92);}.cls-97{fill:url(#linear-gradient-93);}.cls-98{fill:url(#linear-gradient-94);}.cls-99{fill:url(#linear-gradient-95);}.cls-100{fill:url(#linear-gradient-96);}.cls-101{fill:url(#linear-gradient-97);}.cls-102{fill:url(#linear-gradient-98);}.cls-103{fill:url(#linear-gradient-99);}.cls-104{fill:url(#linear-gradient-100);}.cls-105{fill:url(#linear-gradient-101);}.cls-106{fill:url(#linear-gradient-102);}.cls-107{fill:url(#linear-gradient-103);}.cls-108{fill:url(#linear-gradient-104);}.cls-109{fill:url(#linear-gradient-105);}.cls-110{fill:url(#linear-gradient-106);}.cls-111{fill:url(#linear-gradient-107);}.cls-112{fill:url(#linear-gradient-108);}.cls-113{fill:url(#linear-gradient-109);}.cls-114{fill:url(#linear-gradient-110);}.cls-115{fill:url(#linear-gradient-111);}.cls-116{fill:url(#linear-gradient-112);}.cls-117{fill:url(#linear-gradient-113);}.cls-118{fill:url(#linear-gradient-114);}.cls-119{fill:url(#linear-gradient-115);}.cls-120{fill:url(#linear-gradient-116);}.cls-121{opacity:0.5;}</style><radialGradient id="radial-gradient" cx="208.94" cy="291.92" r="284.94" gradientUnits="userSpaceOnUse"><stop offset="0.11" stop-color="#0d3e64"/><stop offset="0.21" stop-color="#0b365f"/><stop offset="0.73" stop-color="#041048"/><stop offset="1" stop-color="#01013f"/></radialGradient><clipPath id="clip-path" transform="translate(2.24)"><rect class="cls-1" width="432" height="288"/></clipPath><linearGradient id="linear-gradient" x1="216.35" y1="789.22" x2="218.05" y2="556.23" gradientTransform="translate(2.24 -285.58) scale(1 0.73)" gradientUnits="userSpaceOnUse"><stop offset="0" stop-color="#6cbbfa"/><stop offset="0.54" stop-color="#0088ec"/><stop offset="0.62" stop-color="#0062b3"/><stop offset="0.72" stop-color="#003773"/><stop offset="0.79" stop-color="#001c4b"/><stop offset="0.83" stop-color="#00123c"/><stop offset="0.83" stop-color="#001139"/><stop offset="0.9" stop-color="#00081a"/><stop offset="0.96" stop-color="#000207"/><stop offset="1"/></linearGradient><linearGradient id="linear-gradient-2" x1="217.82" y1="789.23" x2="219.53" y2="556.23" xlink:href="#linear-gradient"/><linearGradient id="linear-gradient-3" x1="217.77" y1="789.23" x2="219.47" y2="556.23" xlink:href="#linear-gradient"/><linearGradient id="linear-gradient-4" x1="217.71" y1="789.23" x2="219.41" y2="556.23" xlink:href="#linear-gradient"/><linearGradient id="linear-gradient-5" x1="217.66" y1="789.23" x2="219.36" y2="556.23" xlink:href="#linear-gradient"/><linearGradient id="linear-gradient-6" x1="217.61" y1="789.23" x2="219.31" y2="556.23" xlink:href="#linear-gradient"/><linearGradient id="linear-gradient-7" x1="217.56" y1="789.23" x2="219.26" y2="556.23" xlink:href="#linear-gradient"/><linearGradient id="linear-gradient-8" x1="217.51" y1="789.23" x2="219.21" y2="556.23" xlink:href="#linear-gradient"/><linearGradient id="linear-gradient-9" x1="217.47" y1="789.23" x2="219.17" y2="556.23" xlink:href="#linear-gradient"/><linearGradient id="linear-gradient-10" x1="217.42" y1="789.23" x2="219.12" y2="556.23" xlink:href="#linear-gradient"/><linearGradient id="linear-gradient-11" x1="217.38" y1="789.23" x2="219.08" y2="556.23" xlink:href="#linear-gradient"/><linearGradient id="linear-gradient-12" x1="217.34" y1="789.23" x2="219.04" y2="556.23" xlink:href="#linear-gradient"/><linearGradient id="linear-gradient-13" x1="217.3" y1="789.23" x2="219" y2="556.23" xlink:href="#linear-gradient"/><linearGradient id="linear-gradient-14" x1="217.26" y1="789.23" x2="218.96" y2="556.23" xlink:href="#linear-gradient"/><linearGradient id="linear-gradient-15" x1="217.22" y1="789.23" x2="218.92" y2="556.23" xlink:href="#linear-gradient"/><linearGradient id="linear-gradient-16" x1="217.19" y1="789.23" x2="218.89" y2="556.23" xlink:href="#linear-gradient"/><linearGradient id="linear-gradient-17" x1="217.15" y1="789.23" x2="218.85" y2="556.23" xlink:href="#linear-gradient"/><linearGradient id="linear-gradient-18" x1="217.12" y1="789.23" x2="218.82" y2="556.23" xlink:href="#linear-gradient"/><linearGradient id="linear-gradient-19" x1="217.09" y1="789.23" x2="218.79" y2="556.23" xlink:href="#linear-gradient"/><linearGradient id="linear-gradient-20" x1="217.05" y1="789.23" x2="218.75" y2="556.23" xlink:href="#linear-gradient"/><linearGradient id="linear-gradient-21" x1="217.02" y1="789.23" x2="218.72" y2="556.23" xlink:href="#linear-gradient"/><linearGradient id="linear-gradient-22" x1="216.99" y1="789.23" x2="218.69" y2="556.23" xlink:href="#linear-gradient"/><linearGradient id="linear-gradient-23" x1="216.96" y1="789.23" x2="218.66" y2="556.23" xlink:href="#linear-gradient"/><linearGradient id="linear-gradient-24" x1="216.94" y1="789.23" x2="218.64" y2="556.23" xlink:href="#linear-gradient"/><linearGradient id="linear-gradient-25" x1="216.91" y1="789.23" x2="218.61" y2="556.23" xlink:href="#linear-gradient"/><linearGradient id="linear-gradient-26" x1="216.88" y1="789.23" x2="218.58" y2="556.23" xlink:href="#linear-gradient"/><linearGradient id="linear-gradient-27" x1="216.86" y1="789.23" x2="218.56" y2="556.23" xlink:href="#linear-gradient"/><linearGradient id="linear-gradient-28" x1="216.83" y1="789.23" x2="218.53" y2="556.23" xlink:href="#linear-gradient"/><linearGradient id="linear-gradient-29" x1="216.81" y1="789.23" x2="218.51" y2="556.23" xlink:href="#linear-gradient"/><linearGradient id="linear-gradient-30" x1="216.78" y1="789.23" x2="218.48" y2="556.23" xlink:href="#linear-gradient"/><linearGradient id="linear-gradient-31" x1="216.76" y1="789.23" x2="218.46" y2="556.23" xlink:href="#linear-gradient"/><linearGradient id="linear-gradient-32" x1="216.74" y1="789.23" x2="218.44" y2="556.23" xlink:href="#linear-gradient"/><linearGradient id="linear-gradient-33" x1="216.71" y1="789.23" x2="218.41" y2="556.23" xlink:href="#linear-gradient"/><linearGradient id="linear-gradient-34" x1="216.69" y1="789.23" x2="218.39" y2="556.23" xlink:href="#linear-gradient"/><linearGradient id="linear-gradient-35" x1="216.67" y1="789.23" x2="218.37" y2="556.23" xlink:href="#linear-gradient"/><linearGradient id="linear-gradient-36" x1="216.65" y1="789.23" x2="218.35" y2="556.23" xlink:href="#linear-gradient"/><linearGradient id="linear-gradient-37" x1="216.63" y1="789.23" x2="218.33" y2="556.23" xlink:href="#linear-gradient"/><linearGradient id="linear-gradient-38" x1="216.61" y1="789.23" x2="218.31" y2="556.23" xlink:href="#linear-gradient"/><linearGradient id="linear-gradient-39" x1="216.59" y1="789.23" x2="218.29" y2="556.23" xlink:href="#linear-gradient"/><linearGradient id="linear-gradient-40" x1="216.57" y1="789.23" x2="218.27" y2="556.23" xlink:href="#linear-gradient"/><linearGradient id="linear-gradient-41" x1="216.55" y1="789.23" x2="218.25" y2="556.23" xlink:href="#linear-gradient"/><linearGradient id="linear-gradient-42" x1="216.54" y1="789.22" x2="218.24" y2="556.23" xlink:href="#linear-gradient"/><linearGradient id="linear-gradient-43" x1="216.52" y1="789.23" x2="218.22" y2="556.23" xlink:href="#linear-gradient"/><linearGradient id="linear-gradient-44" x1="216.5" y1="789.24" x2="218.2" y2="556.23" xlink:href="#linear-gradient"/><linearGradient id="linear-gradient-45" x1="216.48" y1="789.23" x2="218.18" y2="556.23" xlink:href="#linear-gradient"/><linearGradient id="linear-gradient-46" x1="216.47" y1="789.23" x2="218.17" y2="556.23" xlink:href="#linear-gradient"/><linearGradient id="linear-gradient-47" x1="216.45" y1="789.23" x2="218.15" y2="556.23" xlink:href="#linear-gradient"/><linearGradient id="linear-gradient-48" x1="216.44" y1="789.23" x2="218.14" y2="556.23" xlink:href="#linear-gradient"/><linearGradient id="linear-gradient-49" x1="216.42" y1="789.23" x2="218.12" y2="556.23" xlink:href="#linear-gradient"/><linearGradient id="linear-gradient-50" x1="216.41" y1="789.23" x2="218.11" y2="556.23" xlink:href="#linear-gradient"/><linearGradient id="linear-gradient-51" x1="216.39" y1="789.24" x2="218.09" y2="556.23" xlink:href="#linear-gradient"/><linearGradient id="linear-gradient-52" x1="216.38" y1="789.23" x2="218.08" y2="556.23" xlink:href="#linear-gradient"/><linearGradient id="linear-gradient-53" x1="216.36" y1="789.23" x2="218.06" y2="556.23" xlink:href="#linear-gradient"/><linearGradient id="linear-gradient-54" x1="434.15" y1="790.81" x2="435.86" y2="557.82" xlink:href="#linear-gradient"/><linearGradient id="linear-gradient-55" x1="430.7" y1="790.78" x2="432.4" y2="557.79" xlink:href="#linear-gradient"/><linearGradient id="linear-gradient-56" x1="427.24" y1="790.76" x2="428.95" y2="557.77" xlink:href="#linear-gradient"/><linearGradient id="linear-gradient-57" x1="423.79" y1="790.74" x2="425.49" y2="557.74" xlink:href="#linear-gradient"/><linearGradient id="linear-gradient-58" x1="420.34" y1="790.71" x2="422.04" y2="557.72" xlink:href="#linear-gradient"/><linearGradient id="linear-gradient-59" x1="416.89" y1="790.69" x2="418.59" y2="557.69" xlink:href="#linear-gradient"/><linearGradient id="linear-gradient-60" x1="413.45" y1="790.66" x2="415.15" y2="557.67" xlink:href="#linear-gradient"/><linearGradient id="linear-gradient-61" x1="410" y1="790.64" x2="411.71" y2="557.64" xlink:href="#linear-gradient"/><linearGradient id="linear-gradient-62" x1="406.56" y1="790.61" x2="408.27" y2="557.62" xlink:href="#linear-gradient"/><linearGradient id="linear-gradient-63" x1="403.13" y1="790.58" x2="404.83" y2="557.59" xlink:href="#linear-gradient"/><linearGradient id="linear-gradient-64" x1="399.7" y1="790.56" x2="401.4" y2="557.57" xlink:href="#linear-gradient"/><linearGradient id="linear-gradient-65" x1="396.27" y1="790.53" x2="397.97" y2="557.54" xlink:href="#linear-gradient"/><linearGradient id="linear-gradient-66" x1="392.84" y1="790.51" x2="394.54" y2="557.52" xlink:href="#linear-gradient"/><linearGradient id="linear-gradient-67" x1="389.43" y1="790.48" x2="391.13" y2="557.49" xlink:href="#linear-gradient"/><linearGradient id="linear-gradient-68" x1="386.02" y1="790.46" x2="387.72" y2="557.47" xlink:href="#linear-gradient"/><linearGradient id="linear-gradient-69" x1="382.62" y1="790.44" x2="384.32" y2="557.44" xlink:href="#linear-gradient"/><linearGradient id="linear-gradient-70" x1="379.22" y1="790.41" x2="380.92" y2="557.42" xlink:href="#linear-gradient"/><linearGradient id="linear-gradient-71" x1="368.56" y1="790.33" x2="370.26" y2="557.34" xlink:href="#linear-gradient"/><linearGradient id="linear-gradient-72" x1="357.88" y1="790.25" x2="359.58" y2="557.26" xlink:href="#linear-gradient"/><linearGradient id="linear-gradient-73" x1="347.21" y1="790.18" x2="348.91" y2="557.18" xlink:href="#linear-gradient"/><linearGradient id="linear-gradient-74" x1="336.53" y1="790.1" x2="338.23" y2="557.11" xlink:href="#linear-gradient"/><linearGradient id="linear-gradient-75" x1="325.85" y1="790.02" x2="327.56" y2="557.03" xlink:href="#linear-gradient"/><linearGradient id="linear-gradient-76" x1="315.18" y1="789.94" x2="316.88" y2="556.95" xlink:href="#linear-gradient"/><linearGradient id="linear-gradient-77" x1="304.51" y1="789.87" x2="306.21" y2="556.87" xlink:href="#linear-gradient"/><linearGradient id="linear-gradient-78" x1="293.83" y1="789.79" x2="295.53" y2="556.8" xlink:href="#linear-gradient"/><linearGradient id="linear-gradient-79" x1="283.15" y1="789.71" x2="284.86" y2="556.72" xlink:href="#linear-gradient"/><linearGradient id="linear-gradient-80" x1="272.48" y1="789.63" x2="274.18" y2="556.64" xlink:href="#linear-gradient"/><linearGradient id="linear-gradient-81" x1="261.8" y1="789.55" x2="263.5" y2="556.56" xlink:href="#linear-gradient"/><linearGradient id="linear-gradient-82" x1="251.13" y1="789.48" x2="252.83" y2="556.48" xlink:href="#linear-gradient"/><linearGradient id="linear-gradient-83" x1="240.45" y1="789.4" x2="242.15" y2="556.41" xlink:href="#linear-gradient"/><linearGradient id="linear-gradient-84" x1="229.78" y1="789.32" x2="231.48" y2="556.33" xlink:href="#linear-gradient"/><linearGradient id="linear-gradient-85" x1="219.1" y1="789.24" x2="220.8" y2="556.25" xlink:href="#linear-gradient"/><linearGradient id="linear-gradient-86" x1="208.28" y1="789.16" x2="209.98" y2="556.17" xlink:href="#linear-gradient"/><linearGradient id="linear-gradient-87" x1="197.6" y1="789.08" x2="199.3" y2="556.09" xlink:href="#linear-gradient"/><linearGradient id="linear-gradient-88" x1="186.92" y1="789.01" x2="188.63" y2="556.02" xlink:href="#linear-gradient"/><linearGradient id="linear-gradient-89" x1="176.25" y1="788.93" x2="177.95" y2="555.94" xlink:href="#linear-gradient"/><linearGradient id="linear-gradient-90" x1="165.58" y1="788.85" x2="167.28" y2="555.86" xlink:href="#linear-gradient"/><linearGradient id="linear-gradient-91" x1="154.9" y1="788.77" x2="156.6" y2="555.78" xlink:href="#linear-gradient"/><linearGradient id="linear-gradient-92" x1="144.22" y1="788.7" x2="145.93" y2="555.7" xlink:href="#linear-gradient"/><linearGradient id="linear-gradient-93" x1="133.55" y1="788.62" x2="135.25" y2="555.63" xlink:href="#linear-gradient"/><linearGradient id="linear-gradient-94" x1="122.87" y1="788.54" x2="124.57" y2="555.55" xlink:href="#linear-gradient"/><linearGradient id="linear-gradient-95" x1="112.2" y1="788.46" x2="113.9" y2="555.47" xlink:href="#linear-gradient"/><linearGradient id="linear-gradient-96" x1="101.52" y1="788.38" x2="103.22" y2="555.39" xlink:href="#linear-gradient"/><linearGradient id="linear-gradient-97" x1="90.85" y1="788.31" x2="92.55" y2="555.31" xlink:href="#linear-gradient"/><linearGradient id="linear-gradient-98" x1="80.17" y1="788.23" x2="81.87" y2="555.24" xlink:href="#linear-gradient"/><linearGradient id="linear-gradient-99" x1="69.5" y1="788.15" x2="71.2" y2="555.16" xlink:href="#linear-gradient"/><linearGradient id="linear-gradient-100" x1="58.82" y1="788.07" x2="60.52" y2="555.08" xlink:href="#linear-gradient"/><linearGradient id="linear-gradient-101" x1="51.52" y1="788.02" x2="53.22" y2="555.03" xlink:href="#linear-gradient"/><linearGradient id="linear-gradient-102" x1="47.95" y1="787.99" x2="49.65" y2="555" xlink:href="#linear-gradient"/><linearGradient id="linear-gradient-103" x1="44.4" y1="787.97" x2="46.1" y2="554.98" xlink:href="#linear-gradient"/><linearGradient id="linear-gradient-104" x1="40.85" y1="787.94" x2="42.55" y2="554.95" xlink:href="#linear-gradient"/><linearGradient id="linear-gradient-105" x1="37.31" y1="787.92" x2="39.02" y2="554.92" xlink:href="#linear-gradient"/><linearGradient id="linear-gradient-106" x1="33.78" y1="787.89" x2="35.48" y2="554.9" xlink:href="#linear-gradient"/><linearGradient id="linear-gradient-107" x1="30.25" y1="787.86" x2="31.95" y2="554.87" xlink:href="#linear-gradient"/><linearGradient id="linear-gradient-108" x1="26.73" y1="787.84" x2="28.43" y2="554.85" xlink:href="#linear-gradient"/><linearGradient id="linear-gradient-109" x1="23.21" y1="787.81" x2="24.91" y2="554.82" xlink:href="#linear-gradient"/><linearGradient id="linear-gradient-110" x1="19.69" y1="787.79" x2="21.4" y2="554.79" xlink:href="#linear-gradient"/><linearGradient id="linear-gradient-111" x1="16.18" y1="787.76" x2="17.88" y2="554.77" xlink:href="#linear-gradient"/><linearGradient id="linear-gradient-112" x1="12.67" y1="787.73" x2="14.37" y2="554.74" xlink:href="#linear-gradient"/><linearGradient id="linear-gradient-113" x1="9.16" y1="787.71" x2="10.86" y2="554.72" xlink:href="#linear-gradient"/><linearGradient id="linear-gradient-114" x1="5.65" y1="787.68" x2="7.36" y2="554.69" xlink:href="#linear-gradient"/><linearGradient id="linear-gradient-115" x1="2.15" y1="787.66" x2="3.85" y2="554.67" xlink:href="#linear-gradient"/><linearGradient id="linear-gradient-116" x1="-1.35" y1="787.63" x2="0.35" y2="554.64" xlink:href="#linear-gradient"/></defs><title>tech expo image</title><g class="cls-2"><g id="Layer_1" data-name="Layer 1"><rect class="cls-1" x="2.24" width="432" height="288"/><g class="cls-3"><g class="cls-4"><rect class="cls-5" y="151.61" width="439.94" height="0.05"/><rect class="cls-6" y="298.89" width="439.94" height="0.23"/><rect class="cls-7" y="293.16" width="439.94" height="0.22"/><rect class="cls-8" y="287.67" width="439.94" height="0.22"/><rect class="cls-9" y="282.38" width="439.94" height="0.21"/><rect class="cls-10" y="277.29" width="439.94" height="0.2"/><rect class="cls-11" y="272.39" width="439.94" height="0.19"/><rect class="cls-12" y="267.67" width="439.94" height="0.19"/><rect class="cls-13" y="263.12" width="439.94" height="0.18"/><rect class="cls-14" y="258.73" width="439.94" height="0.17"/><rect class="cls-15" y="254.49" width="439.94" height="0.17"/><rect class="cls-16" y="250.39" width="439.94" height="0.16"/><rect class="cls-17" y="246.43" width="439.94" height="0.16"/><rect class="cls-18" y="242.6" width="439.94" height="0.15"/><rect class="cls-19" y="238.89" width="439.94" height="0.15"/><rect class="cls-20" y="235.31" width="439.94" height="0.14"/><rect class="cls-21" y="231.83" width="439.94" height="0.14"/><rect class="cls-22" y="228.46" width="439.94" height="0.13"/><rect class="cls-23" y="225.19" width="439.94" height="0.13"/><rect class="cls-24" y="222.02" width="439.94" height="0.12"/><rect class="cls-25" y="218.95" width="439.94" height="0.12"/><rect class="cls-26" y="215.96" width="439.94" height="0.12"/><rect class="cls-27" y="213.06" width="439.94" height="0.11"/><rect class="cls-28" y="210.24" width="439.94" height="0.11"/><rect class="cls-29" y="207.49" width="439.94" height="0.11"/><rect class="cls-30" y="204.83" width="439.94" height="0.11"/><rect class="cls-31" y="202.23" width="439.94" height="0.1"/><rect class="cls-32" y="199.71" width="439.94" height="0.1"/><rect class="cls-33" y="197.25" width="439.94" height="0.1"/><rect class="cls-34" y="194.85" width="439.94" height="0.09"/><rect class="cls-35" y="192.52" width="439.94" height="0.09"/><rect class="cls-36" y="190.25" width="439.94" height="0.09"/><rect class="cls-37" y="188.03" width="439.94" height="0.09"/><rect class="cls-38" y="185.87" width="439.94" height="0.09"/><rect class="cls-39" y="183.76" width="439.94" height="0.08"/><rect class="cls-40" y="181.7" width="439.94" height="0.08"/><rect class="cls-41" y="179.69" width="439.94" height="0.08"/><rect class="cls-42" y="177.72" width="439.94" height="0.08"/><rect class="cls-43" y="175.81" width="439.94" height="0.08"/><rect class="cls-44" y="173.93" width="439.94" height="0.07"/><rect class="cls-45" y="172.1" width="439.94" height="0.07"/><rect class="cls-46" y="170.31" width="439.94" height="0.07"/><rect class="cls-47" y="168.57" width="439.94" height="0.07"/><rect class="cls-48" y="166.85" width="439.94" height="0.07"/><rect class="cls-49" y="165.18" width="439.94" height="0.07"/><rect class="cls-50" y="163.54" width="439.94" height="0.06"/><rect class="cls-51" y="161.94" width="439.94" height="0.06"/><rect class="cls-52" y="160.37" width="439.94" height="0.06"/><rect class="cls-53" y="158.83" width="439.94" height="0.06"/><rect class="cls-54" y="157.33" width="439.94" height="0.06"/><rect class="cls-55" y="155.86" width="439.94" height="0.06"/><rect class="cls-56" y="154.41" width="439.94" height="0.06"/><rect class="cls-57" y="153" width="439.94" height="0.06"/><polygon class="cls-58" points="439.94 154.19 435.89 151.64 435.61 151.64 439.94 154.38 439.94 154.19"/><polygon class="cls-59" points="439.94 158.82 428.93 151.64 428.65 151.64 439.94 159.02 439.94 158.82"/><polygon class="cls-60" points="439.94 163.76 421.98 151.64 421.69 151.64 439.94 163.97 439.94 163.76"/><polygon class="cls-61" points="439.94 169.05 415.02 151.64 414.73 151.64 439.94 169.28 439.94 169.05"/><polygon class="cls-62" points="439.94 174.73 408.06 151.64 407.77 151.64 439.94 174.97 439.94 174.73"/><polygon class="cls-63" points="439.94 180.83 401.1 151.64 400.82 151.64 439.94 181.09 439.94 180.83"/><polygon class="cls-64" points="439.94 187.41 394.14 151.64 393.86 151.64 439.94 187.69 439.94 187.41"/><polygon class="cls-65" points="439.94 194.52 387.18 151.64 386.9 151.64 439.94 194.83 439.94 194.52"/><polygon class="cls-66" points="439.94 202.25 380.23 151.64 379.94 151.64 439.94 202.57 439.94 202.25"/><polygon class="cls-67" points="439.94 210.65 373.27 151.64 372.98 151.64 439.94 211.01 439.94 210.65"/><polygon class="cls-68" points="439.94 219.84 366.31 151.64 366.03 151.64 439.94 220.23 439.94 219.84"/><polygon class="cls-69" points="439.94 229.92 359.35 151.64 359.07 151.64 439.94 230.36 439.94 229.92"/><polygon class="cls-70" points="439.94 241.04 352.39 151.64 352.11 151.64 439.94 241.52 439.94 241.04"/><polygon class="cls-71" points="439.94 253.36 345.44 151.64 345.15 151.64 439.94 253.89 439.94 253.36"/><polygon class="cls-72" points="439.94 267.08 338.48 151.64 338.19 151.64 439.94 267.68 439.94 267.08"/><polygon class="cls-73" points="439.94 282.46 331.52 151.64 331.24 151.64 439.94 283.13 439.94 282.46"/><polygon class="cls-74" points="439.94 299.86 439.94 299.83 324.56 151.64 324.28 151.64 439.37 299.86 439.94 299.86"/><polygon class="cls-75" points="425.57 299.86 317.6 151.64 317.32 151.64 424.98 299.86 425.57 299.86"/><polygon class="cls-76" points="411.17 299.86 310.64 151.64 310.36 151.64 410.58 299.86 411.17 299.86"/><polygon class="cls-77" points="396.78 299.86 303.69 151.64 303.4 151.64 396.19 299.86 396.78 299.86"/><polygon class="cls-78" points="382.39 299.86 296.73 151.64 296.44 151.64 381.8 299.86 382.39 299.86"/><polygon class="cls-79" points="367.99 299.86 289.77 151.64 289.49 151.64 367.4 299.86 367.99 299.86"/><polygon class="cls-80" points="353.6 299.86 282.81 151.64 282.53 151.64 353.01 299.86 353.6 299.86"/><polygon class="cls-81" points="339.21 299.86 275.85 151.64 275.57 151.64 338.62 299.86 339.21 299.86"/><polygon class="cls-82" points="324.81 299.86 268.89 151.64 268.61 151.64 324.22 299.86 324.81 299.86"/><polygon class="cls-83" points="310.42 299.86 261.94 151.64 261.65 151.64 309.83 299.86 310.42 299.86"/><polygon class="cls-84" points="296.03 299.86 254.98 151.64 254.69 151.64 295.44 299.86 296.03 299.86"/><polygon class="cls-85" points="281.63 299.86 248.02 151.64 247.74 151.64 281.04 299.86 281.63 299.86"/><polygon class="cls-86" points="267.24 299.86 241.06 151.64 240.78 151.64 266.65 299.86 267.24 299.86"/><polygon class="cls-87" points="252.84 299.86 234.1 151.64 233.82 151.64 252.25 299.86 252.84 299.86"/><polygon class="cls-88" points="238.45 299.86 227.15 151.64 226.86 151.64 237.86 299.86 238.45 299.86"/><polygon class="cls-89" points="224.06 299.86 220.19 151.64 219.9 151.64 223.47 299.86 224.06 299.86"/><polygon class="cls-90" points="209.66 299.86 213.23 151.64 212.94 151.64 209.08 299.86 209.66 299.86"/><polygon class="cls-91" points="195.27 299.86 206.27 151.64 205.99 151.64 194.68 299.86 195.27 299.86"/><polygon class="cls-92" points="180.88 299.86 199.31 151.64 199.03 151.64 180.29 299.86 180.88 299.86"/><polygon class="cls-93" points="166.48 299.86 192.35 151.64 192.07 151.64 165.9 299.86 166.48 299.86"/><polygon class="cls-94" points="152.09 299.86 185.4 151.64 185.11 151.64 151.5 299.86 152.09 299.86"/><polygon class="cls-95" points="137.7 299.86 178.44 151.64 178.15 151.64 137.11 299.86 137.7 299.86"/><polygon class="cls-96" points="123.3 299.86 171.48 151.64 171.2 151.64 122.72 299.86 123.3 299.86"/><polygon class="cls-97" points="108.91 299.86 164.52 151.64 164.24 151.64 108.32 299.86 108.91 299.86"/><polygon class="cls-98" points="94.52 299.86 157.56 151.64 157.28 151.64 93.93 299.86 94.52 299.86"/><polygon class="cls-99" points="80.12 299.86 150.61 151.64 150.32 151.64 79.54 299.86 80.12 299.86"/><polygon class="cls-100" points="65.73 299.86 143.65 151.64 143.36 151.64 65.14 299.86 65.73 299.86"/><polygon class="cls-101" points="51.34 299.86 136.69 151.64 136.41 151.64 50.75 299.86 51.34 299.86"/><polygon class="cls-102" points="36.94 299.86 129.73 151.64 129.45 151.64 36.35 299.86 36.94 299.86"/><polygon class="cls-103" points="22.55 299.86 122.77 151.64 122.49 151.64 21.96 299.86 22.55 299.86"/><polygon class="cls-104" points="8.16 299.86 115.82 151.64 115.53 151.64 7.57 299.86 8.16 299.86"/><polygon class="cls-105" points="0 291.83 108.86 151.64 108.57 151.64 0 291.09 0 291.83"/><polygon class="cls-106" points="0 274.9 101.9 151.64 101.61 151.64 0 274.25 0 274.9"/><polygon class="cls-107" points="0 259.92 94.94 151.64 94.66 151.64 0 259.34 0 259.92"/><polygon class="cls-108" points="0 246.55 87.98 151.64 87.7 151.64 0 246.03 0 246.55"/><polygon class="cls-109" points="0 234.56 81.03 151.64 80.74 151.64 0 234.09 0 234.56"/><polygon class="cls-110" points="0 223.73 74.07 151.64 73.78 151.64 0 223.31 0 223.73"/><polygon class="cls-111" points="0 213.92 67.11 151.64 66.82 151.64 0 213.54 0 213.92"/><polygon class="cls-112" points="0 204.98 60.15 151.64 59.87 151.64 0 204.63 0 204.98"/><polygon class="cls-113" points="0 196.8 53.19 151.64 52.91 151.64 0 196.48 0 196.8"/><polygon class="cls-114" points="0 189.29 46.23 151.64 45.95 151.64 0 188.99 0 189.29"/><polygon class="cls-115" points="0 182.37 39.27 151.64 38.99 151.64 0 182.09 0 182.37"/><polygon class="cls-116" points="0 175.97 32.32 151.64 32.03 151.64 0 175.72 0 175.97"/><polygon class="cls-117" points="0 170.03 25.36 151.64 25.07 151.64 0 169.8 0 170.03"/><polygon class="cls-118" points="0 164.52 18.4 151.64 18.12 151.64 0 164.3 0 164.52"/><polygon class="cls-119" points="0 159.37 11.44 151.64 11.16 151.64 0 159.17 0 159.37"/><polygon class="cls-120" points="0 154.57 4.48 151.64 4.2 151.64 0 154.38 0 154.57"/></g></g><rect class="cls-121" x="2.24" width="432" height="288"/></g></g></svg>